<svg width="290" height="265" viewBox="0 0 290 265" fill="none" xmlns="http://www.w3.org/2000/svg">
<rect x="96.4446" width="249.41" height="152.753" transform="rotate(39.1519 96.4446 0)" fill="#B7956E"/>
<path d="M75.9033 76.7804L88.8107 60.623L97.03 67.189C100.749 70.1599 100.82 73.0835 98.9224 75.4586C97.2996 77.49 95.2072 77.8663 92.9635 76.3811C95.6513 78.7843 95.291 81.6707 93.7432 83.6083C91.7459 86.1085 88.4355 86.7917 84.1539 83.3714L75.9033 76.7804ZM86.9368 69.826C86.9368 69.826 89.5557 71.867 91.3058 73.265C92.8059 74.4634 94.1866 74.5936 95.2102 73.3123C96.2338 72.0309 95.8644 70.7631 94.333 69.5397L89.9577 66.0445L86.9368 69.826ZM81.4443 76.7015L86.4759 80.721C88.101 82.0193 89.6003 81.937 90.6239 80.6557C91.6475 79.3743 91.3653 77.869 89.7402 76.5708L84.7398 72.5762L81.4443 76.7015ZM101.259 97.8039C95.2275 92.9855 95.1731 86.6449 98.9429 81.9258C102.713 77.2067 109.353 76.265 114.603 80.4593C116.603 82.0571 118.473 84.5233 118.837 87.0156L116.066 90.4846C116.066 90.4846 116.107 86.524 112.231 83.4282C109.044 80.8817 104.671 81.4845 102.224 84.5472C99.5531 87.8912 100.037 91.9639 103.631 94.8349C107.412 97.8558 110.761 97.766 110.761 97.766L108.264 100.891C105.872 100.874 102.916 99.1271 101.259 97.8039ZM118.315 111.429C112.627 106.885 112.497 100.382 116.217 95.7253C120.087 90.8812 126.752 90.1644 131.752 94.1589C136.44 97.9038 136.063 103.951 132.943 107.858L131.694 109.42L118.787 99.1093C117.165 101.909 117.117 105.557 120.774 108.478C124.743 111.649 128.497 111.884 128.529 111.909L126.107 114.94C126.107 114.94 123.034 115.199 118.315 111.429ZM121.04 96.609L130.416 104.099C131.29 102.749 132.649 99.3807 129.118 96.5596C125.586 93.7384 122.227 95.5087 121.04 96.609ZM137.736 126.176L150.644 110.018L158.863 116.584C162.582 119.555 162.653 122.479 160.755 124.854C159.133 126.885 157.04 127.262 154.797 125.777C157.484 128.18 157.124 131.066 155.576 133.004C153.579 135.504 150.269 136.187 145.987 132.767L137.736 126.176ZM148.77 119.221C148.77 119.221 151.389 121.262 153.139 122.66C154.639 123.859 156.02 123.989 157.043 122.708C158.067 121.426 157.697 120.158 156.166 118.935L151.791 115.44L148.77 119.221ZM143.277 126.097L148.309 130.116C149.934 131.415 151.433 131.332 152.457 130.051C153.481 128.77 153.198 127.264 151.573 125.966L146.573 121.972L143.277 126.097ZM155.56 140.414L168.467 124.257L171.843 126.953L162.455 138.704L179.906 133.394L183.5 136.265L170.592 152.423L167.217 149.726L176.629 137.944L159.123 143.26L155.56 140.414ZM171.21 159.316L176.528 152.659L178.653 154.357C180.963 152.619 186.301 148.436 191.145 142.373L203.271 152.059L192.56 165.467L195.092 167.489L189.774 174.146L186.399 171.449L189.519 167.543L177.706 158.106L174.585 162.012L171.21 159.316ZM181.934 156.978L189.154 162.745L197.318 152.526L191.63 147.982C189.351 150.514 184.725 154.702 181.934 156.978ZM196.32 172.975L209.227 156.818L212.571 159.489L207.353 166.021L212.26 169.94C216.948 173.685 215.901 177.559 214.353 179.497C212.356 181.997 208.821 182.962 204.57 179.566L196.32 172.975ZM212.383 185.808L225.291 169.65L228.666 172.347L215.759 188.504L212.383 185.808ZM201.861 172.896L206.892 176.916C208.517 178.214 210.017 178.132 211.04 176.85C212.064 175.569 211.782 174.064 210.157 172.766L205.156 168.771L201.861 172.896ZM52.1857 106.47L65.0931 90.3126L68.4683 93.0089L63.7498 98.9156L74.4063 97.7525L78.6253 101.123L65.089 102.238L66.2805 117.73L62.0614 114.359L61.2033 102.103L55.561 109.166L52.1857 106.47ZM74.757 125.269C69.8504 121.349 68.9584 114.391 72.7283 109.672C76.4981 104.953 83.5067 104.254 88.4133 108.174C93.3199 112.094 94.1869 119.083 90.4171 123.803C86.6472 128.522 79.6636 129.189 74.757 125.269ZM77.1787 122.238C80.3664 124.784 84.7451 124.238 87.1668 121.206C89.6135 118.143 89.1794 113.752 85.9916 111.206C82.8039 108.659 78.4252 109.206 75.9785 112.268C73.5568 115.3 73.9909 119.691 77.1787 122.238ZM90.2488 147.372L95.3419 140.997C90.416 136.396 89.1376 130.562 93.1321 125.562C97.1266 120.562 103.342 120.663 108.674 124.308L112.344 119.714L116.168 121.848L112.049 127.004C116.781 131.399 118.222 137.414 114.227 142.414C110.233 147.414 104.292 147.481 98.7171 143.693L93.6241 150.068L90.2488 147.372ZM97.6886 138.059L106.402 127.152C103.433 124.78 99.1349 124.777 96.4136 128.183C93.6923 131.59 94.8447 135.787 97.6886 138.059ZM101.064 140.755C103.902 142.971 108.256 143.224 110.977 139.817C113.698 136.411 112.721 132.251 109.777 129.848L101.064 140.755ZM118.647 160.33C112.959 155.787 112.829 149.284 116.549 144.627C120.419 139.783 127.084 139.066 132.084 143.061C136.772 146.805 136.395 152.853 133.274 156.759L132.026 158.322L119.119 148.011C117.497 150.811 117.449 154.459 121.106 157.38C125.075 160.551 128.829 160.785 128.861 160.81L126.439 163.842C126.439 163.842 123.366 164.1 118.647 160.33ZM121.372 145.511L130.748 153C131.622 151.65 132.981 148.282 129.45 145.461C125.918 142.64 122.559 144.41 121.372 145.511Z" fill="white"/>
</svg>
